<svg width="582" height="724" viewBox="0 0 582 724" fill="none" xmlns="http://www.w3.org/2000/svg">
<path d="M285 724C229.667 724 176 716.667 124 702C72.6667 686.667 31.3333 667 8.64267e-07 643L55 521C85 543 120.667 560.667 162 574C203.333 587.333 244.667 594 286 594C332 594 366 587.333 388 574C410 560 421 541.667 421 519C421 502.333 414.333 488.667 401 478C388.333 466.667 371.667 457.667 351 451C331 444.333 303.667 437 269 429C215.667 416.333 172 403.667 138 391C104 378.333 74.6667 358 50 330C26 302 14 264.667 14 218C14 177.333 25 140.667 47 108C69 74.6666 102 48.3333 146 29C190.667 9.66665 245 -1.23978e-05 309 -1.23978e-05C353.667 -1.23978e-05 397.333 5.33331 440 16C482.667 26.6666 520 42 552 62L502 185C437.333 148.333 372.667 130 308 130C262.667 130 229 137.333 207 152C185.667 166.667 175 186 175 210C175 234 187.333 252 212 264C237.333 275.333 275.667 286.667 327 298C380.333 310.667 424 323.333 458 336C492 348.667 521 368.667 545 396C569.667 423.333 582 460.333 582 507C582 547 570.667 583.667 548 617C526 649.667 492.667 675.667 448 695C403.333 714.333 349 724 285 724Z" fill="#2D333D"/>
</svg>
