<svg width="678" height="724" viewBox="0 0 678 724" fill="none" xmlns="http://www.w3.org/2000/svg">
<path d="M517 351H665V635C627 663.667 583 685.667 533 701C483 716.333 432.667 724 382 724C309.333 724 244 708.667 186 678C128 646.667 82.3333 603.667 49 549C16.3333 493.667 8.04663e-07 431.333 8.04663e-07 362C8.04663e-07 292.667 16.3333 230.667 49 176C82.3333 120.667 128.333 77.6666 187 47C245.667 15.6667 311.667 -1.23978e-05 385 -1.23978e-05C446.333 -1.23978e-05 502 10.3333 552 30.9999C602 51.6666 644 81.6666 678 121L574 217C524 164.333 463.667 138 393 138C348.333 138 308.667 147.333 274 166C239.333 184.667 212.333 211 193 245C173.667 279 164 318 164 362C164 405.333 173.667 444 193 478C212.333 512 239 538.667 273 558C307.667 576.667 347 586 391 586C437.667 586 479.667 576 517 556V351Z" fill="#2D333D"/>
</svg>
